<mxfile host="app.diagrams.net" modified="2021-01-15T19:49:32.971Z" agent="5.0 (Windows)" etag="5i9JxIsEjjJ0ZTbl_9CP" version="14.2.3" type="github">
  <diagram name="Page-1" id="e56a1550-8fbb-45ad-956c-1786394a9013">
    <mxGraphModel dx="1471" dy="716" grid="1" gridSize="10" guides="1" tooltips="1" connect="1" arrows="1" fold="1" page="1" pageScale="1" pageWidth="1920" pageHeight="1200" background="#ffffff" math="0" shadow="0">
      <root>
        <mxCell id="0" />
        <mxCell id="1" parent="0" />
        <mxCell id="PX5IsND9vOsVrEjf0ufV-1" style="edgeStyle=orthogonalEdgeStyle;rounded=0;orthogonalLoop=1;jettySize=auto;html=1;exitX=0.5;exitY=0;exitDx=0;exitDy=0;entryX=0.5;entryY=1;entryDx=0;entryDy=0;startArrow=classic;startFill=1;endArrow=none;endFill=0;" edge="1" parent="1" source="PX5IsND9vOsVrEjf0ufV-2" target="PX5IsND9vOsVrEjf0ufV-15">
          <mxGeometry relative="1" as="geometry" />
        </mxCell>
        <mxCell id="PX5IsND9vOsVrEjf0ufV-2" value="Musem" style="shape=table;startSize=30;container=1;collapsible=1;childLayout=tableLayout;fixedRows=1;rowLines=0;fontStyle=1;align=center;resizeLast=1;" vertex="1" parent="1">
          <mxGeometry x="80" y="860" width="330" height="130" as="geometry" />
        </mxCell>
        <mxCell id="PX5IsND9vOsVrEjf0ufV-3" value="" style="shape=partialRectangle;collapsible=0;dropTarget=0;pointerEvents=0;fillColor=none;top=0;left=0;bottom=1;right=0;points=[[0,0.5],[1,0.5]];portConstraint=eastwest;align=center;" vertex="1" parent="PX5IsND9vOsVrEjf0ufV-2">
          <mxGeometry y="30" width="330" height="30" as="geometry" />
        </mxCell>
        <mxCell id="PX5IsND9vOsVrEjf0ufV-4" value="id" style="shape=partialRectangle;connectable=0;fillColor=none;top=0;left=0;bottom=0;right=0;fontStyle=1;overflow=hidden;align=center;" vertex="1" parent="PX5IsND9vOsVrEjf0ufV-3">
          <mxGeometry width="110" height="30" as="geometry" />
        </mxCell>
        <mxCell id="PX5IsND9vOsVrEjf0ufV-5" value="int" style="shape=partialRectangle;connectable=0;fillColor=none;top=0;left=0;bottom=0;right=0;align=center;spacingLeft=6;fontStyle=5;overflow=hidden;" vertex="1" parent="PX5IsND9vOsVrEjf0ufV-3">
          <mxGeometry x="110" width="130" height="30" as="geometry" />
        </mxCell>
        <mxCell id="PX5IsND9vOsVrEjf0ufV-6" value="PK M" style="shape=partialRectangle;connectable=0;fillColor=none;top=0;left=0;bottom=0;right=0;align=center;spacingLeft=6;fontStyle=5;overflow=hidden;" vertex="1" parent="PX5IsND9vOsVrEjf0ufV-3">
          <mxGeometry x="240" width="90" height="30" as="geometry" />
        </mxCell>
        <mxCell id="PX5IsND9vOsVrEjf0ufV-7" value="" style="shape=partialRectangle;collapsible=0;dropTarget=0;pointerEvents=0;fillColor=none;top=0;left=0;bottom=0;right=0;points=[[0,0.5],[1,0.5]];portConstraint=eastwest;align=center;" vertex="1" parent="PX5IsND9vOsVrEjf0ufV-2">
          <mxGeometry y="60" width="330" height="30" as="geometry" />
        </mxCell>
        <mxCell id="PX5IsND9vOsVrEjf0ufV-8" value="name" style="shape=partialRectangle;connectable=0;fillColor=none;top=0;left=0;bottom=0;right=0;editable=1;overflow=hidden;align=center;" vertex="1" parent="PX5IsND9vOsVrEjf0ufV-7">
          <mxGeometry width="110" height="30" as="geometry" />
        </mxCell>
        <mxCell id="PX5IsND9vOsVrEjf0ufV-9" value="varchar(200)" style="shape=partialRectangle;connectable=0;fillColor=none;top=0;left=0;bottom=0;right=0;align=center;spacingLeft=6;overflow=hidden;" vertex="1" parent="PX5IsND9vOsVrEjf0ufV-7">
          <mxGeometry x="110" width="130" height="30" as="geometry" />
        </mxCell>
        <mxCell id="PX5IsND9vOsVrEjf0ufV-10" value="M" style="shape=partialRectangle;connectable=0;fillColor=none;top=0;left=0;bottom=0;right=0;align=center;spacingLeft=6;overflow=hidden;" vertex="1" parent="PX5IsND9vOsVrEjf0ufV-7">
          <mxGeometry x="240" width="90" height="30" as="geometry" />
        </mxCell>
        <mxCell id="PX5IsND9vOsVrEjf0ufV-11" value="" style="shape=partialRectangle;collapsible=0;dropTarget=0;pointerEvents=0;fillColor=none;top=0;left=0;bottom=0;right=0;points=[[0,0.5],[1,0.5]];portConstraint=eastwest;align=center;" vertex="1" parent="PX5IsND9vOsVrEjf0ufV-2">
          <mxGeometry y="90" width="330" height="30" as="geometry" />
        </mxCell>
        <mxCell id="PX5IsND9vOsVrEjf0ufV-12" value="description" style="shape=partialRectangle;connectable=0;fillColor=none;top=0;left=0;bottom=0;right=0;editable=1;overflow=hidden;align=center;" vertex="1" parent="PX5IsND9vOsVrEjf0ufV-11">
          <mxGeometry width="110" height="30" as="geometry" />
        </mxCell>
        <mxCell id="PX5IsND9vOsVrEjf0ufV-13" value="text" style="shape=partialRectangle;connectable=0;fillColor=none;top=0;left=0;bottom=0;right=0;align=center;spacingLeft=6;overflow=hidden;" vertex="1" parent="PX5IsND9vOsVrEjf0ufV-11">
          <mxGeometry x="110" width="130" height="30" as="geometry" />
        </mxCell>
        <mxCell id="PX5IsND9vOsVrEjf0ufV-14" style="shape=partialRectangle;connectable=0;fillColor=none;top=0;left=0;bottom=0;right=0;align=center;spacingLeft=6;overflow=hidden;" vertex="1" parent="PX5IsND9vOsVrEjf0ufV-11">
          <mxGeometry x="240" width="90" height="30" as="geometry" />
        </mxCell>
        <mxCell id="PX5IsND9vOsVrEjf0ufV-15" value="Branch" style="shape=table;startSize=30;container=1;collapsible=1;childLayout=tableLayout;fixedRows=1;rowLines=0;fontStyle=1;align=center;resizeLast=1;" vertex="1" parent="1">
          <mxGeometry x="80" y="570" width="330" height="190" as="geometry" />
        </mxCell>
        <mxCell id="PX5IsND9vOsVrEjf0ufV-16" value="" style="shape=partialRectangle;collapsible=0;dropTarget=0;pointerEvents=0;fillColor=none;top=0;left=0;bottom=1;right=0;points=[[0,0.5],[1,0.5]];portConstraint=eastwest;align=center;" vertex="1" parent="PX5IsND9vOsVrEjf0ufV-15">
          <mxGeometry y="30" width="330" height="30" as="geometry" />
        </mxCell>
        <mxCell id="PX5IsND9vOsVrEjf0ufV-17" value="id" style="shape=partialRectangle;connectable=0;fillColor=none;top=0;left=0;bottom=0;right=0;fontStyle=1;overflow=hidden;align=center;" vertex="1" parent="PX5IsND9vOsVrEjf0ufV-16">
          <mxGeometry width="110" height="30" as="geometry" />
        </mxCell>
        <mxCell id="PX5IsND9vOsVrEjf0ufV-18" value="int" style="shape=partialRectangle;connectable=0;fillColor=none;top=0;left=0;bottom=0;right=0;align=center;spacingLeft=6;fontStyle=5;overflow=hidden;" vertex="1" parent="PX5IsND9vOsVrEjf0ufV-16">
          <mxGeometry x="110" width="130" height="30" as="geometry" />
        </mxCell>
        <mxCell id="PX5IsND9vOsVrEjf0ufV-19" value="PK M" style="shape=partialRectangle;connectable=0;fillColor=none;top=0;left=0;bottom=0;right=0;align=center;spacingLeft=6;fontStyle=5;overflow=hidden;" vertex="1" parent="PX5IsND9vOsVrEjf0ufV-16">
          <mxGeometry x="240" width="90" height="30" as="geometry" />
        </mxCell>
        <mxCell id="PX5IsND9vOsVrEjf0ufV-20" value="" style="shape=partialRectangle;collapsible=0;dropTarget=0;pointerEvents=0;fillColor=none;top=0;left=0;bottom=0;right=0;points=[[0,0.5],[1,0.5]];portConstraint=eastwest;align=center;" vertex="1" parent="PX5IsND9vOsVrEjf0ufV-15">
          <mxGeometry y="60" width="330" height="30" as="geometry" />
        </mxCell>
        <mxCell id="PX5IsND9vOsVrEjf0ufV-21" value="place" style="shape=partialRectangle;connectable=0;fillColor=none;top=0;left=0;bottom=0;right=0;editable=1;overflow=hidden;align=center;" vertex="1" parent="PX5IsND9vOsVrEjf0ufV-20">
          <mxGeometry width="110" height="30" as="geometry" />
        </mxCell>
        <mxCell id="PX5IsND9vOsVrEjf0ufV-22" value="varchar(200)" style="shape=partialRectangle;connectable=0;fillColor=none;top=0;left=0;bottom=0;right=0;align=center;spacingLeft=6;overflow=hidden;" vertex="1" parent="PX5IsND9vOsVrEjf0ufV-20">
          <mxGeometry x="110" width="130" height="30" as="geometry" />
        </mxCell>
        <mxCell id="PX5IsND9vOsVrEjf0ufV-23" value="M" style="shape=partialRectangle;connectable=0;fillColor=none;top=0;left=0;bottom=0;right=0;align=center;spacingLeft=6;overflow=hidden;" vertex="1" parent="PX5IsND9vOsVrEjf0ufV-20">
          <mxGeometry x="240" width="90" height="30" as="geometry" />
        </mxCell>
        <mxCell id="PX5IsND9vOsVrEjf0ufV-24" value="" style="shape=partialRectangle;collapsible=0;dropTarget=0;pointerEvents=0;fillColor=none;top=0;left=0;bottom=0;right=0;points=[[0,0.5],[1,0.5]];portConstraint=eastwest;align=center;" vertex="1" parent="PX5IsND9vOsVrEjf0ufV-15">
          <mxGeometry y="90" width="330" height="30" as="geometry" />
        </mxCell>
        <mxCell id="PX5IsND9vOsVrEjf0ufV-25" value="description" style="shape=partialRectangle;connectable=0;fillColor=none;top=0;left=0;bottom=0;right=0;editable=1;overflow=hidden;align=center;" vertex="1" parent="PX5IsND9vOsVrEjf0ufV-24">
          <mxGeometry width="110" height="30" as="geometry" />
        </mxCell>
        <mxCell id="PX5IsND9vOsVrEjf0ufV-26" value="text" style="shape=partialRectangle;connectable=0;fillColor=none;top=0;left=0;bottom=0;right=0;align=center;spacingLeft=6;overflow=hidden;" vertex="1" parent="PX5IsND9vOsVrEjf0ufV-24">
          <mxGeometry x="110" width="130" height="30" as="geometry" />
        </mxCell>
        <mxCell id="PX5IsND9vOsVrEjf0ufV-27" style="shape=partialRectangle;connectable=0;fillColor=none;top=0;left=0;bottom=0;right=0;align=center;spacingLeft=6;overflow=hidden;" vertex="1" parent="PX5IsND9vOsVrEjf0ufV-24">
          <mxGeometry x="240" width="90" height="30" as="geometry" />
        </mxCell>
        <mxCell id="PX5IsND9vOsVrEjf0ufV-290" style="shape=partialRectangle;collapsible=0;dropTarget=0;pointerEvents=0;fillColor=none;top=0;left=0;bottom=0;right=0;points=[[0,0.5],[1,0.5]];portConstraint=eastwest;align=center;" vertex="1" parent="PX5IsND9vOsVrEjf0ufV-15">
          <mxGeometry y="120" width="330" height="30" as="geometry" />
        </mxCell>
        <mxCell id="PX5IsND9vOsVrEjf0ufV-291" value="name" style="shape=partialRectangle;connectable=0;fillColor=none;top=0;left=0;bottom=0;right=0;editable=1;overflow=hidden;align=center;" vertex="1" parent="PX5IsND9vOsVrEjf0ufV-290">
          <mxGeometry width="110" height="30" as="geometry" />
        </mxCell>
        <mxCell id="PX5IsND9vOsVrEjf0ufV-292" value="varchar(200)" style="shape=partialRectangle;connectable=0;fillColor=none;top=0;left=0;bottom=0;right=0;align=center;spacingLeft=6;overflow=hidden;" vertex="1" parent="PX5IsND9vOsVrEjf0ufV-290">
          <mxGeometry x="110" width="130" height="30" as="geometry" />
        </mxCell>
        <mxCell id="PX5IsND9vOsVrEjf0ufV-293" value="M" style="shape=partialRectangle;connectable=0;fillColor=none;top=0;left=0;bottom=0;right=0;align=center;spacingLeft=6;overflow=hidden;" vertex="1" parent="PX5IsND9vOsVrEjf0ufV-290">
          <mxGeometry x="240" width="90" height="30" as="geometry" />
        </mxCell>
        <mxCell id="PX5IsND9vOsVrEjf0ufV-143" style="shape=partialRectangle;collapsible=0;dropTarget=0;pointerEvents=0;fillColor=none;top=0;left=0;bottom=0;right=0;points=[[0,0.5],[1,0.5]];portConstraint=eastwest;align=center;" vertex="1" parent="PX5IsND9vOsVrEjf0ufV-15">
          <mxGeometry y="150" width="330" height="30" as="geometry" />
        </mxCell>
        <mxCell id="PX5IsND9vOsVrEjf0ufV-144" value="MusemId" style="shape=partialRectangle;connectable=0;fillColor=none;top=0;left=0;bottom=0;right=0;editable=1;overflow=hidden;align=center;" vertex="1" parent="PX5IsND9vOsVrEjf0ufV-143">
          <mxGeometry width="110" height="30" as="geometry" />
        </mxCell>
        <mxCell id="PX5IsND9vOsVrEjf0ufV-145" value="int" style="shape=partialRectangle;connectable=0;fillColor=none;top=0;left=0;bottom=0;right=0;align=center;spacingLeft=6;overflow=hidden;" vertex="1" parent="PX5IsND9vOsVrEjf0ufV-143">
          <mxGeometry x="110" width="130" height="30" as="geometry" />
        </mxCell>
        <mxCell id="PX5IsND9vOsVrEjf0ufV-146" value="FK1" style="shape=partialRectangle;connectable=0;fillColor=none;top=0;left=0;bottom=0;right=0;align=center;spacingLeft=6;overflow=hidden;" vertex="1" parent="PX5IsND9vOsVrEjf0ufV-143">
          <mxGeometry x="240" width="90" height="30" as="geometry" />
        </mxCell>
        <mxCell id="PX5IsND9vOsVrEjf0ufV-209" style="edgeStyle=orthogonalEdgeStyle;rounded=0;orthogonalLoop=1;jettySize=auto;html=1;exitX=0.5;exitY=0;exitDx=0;exitDy=0;entryX=0.5;entryY=1;entryDx=0;entryDy=0;startArrow=classic;startFill=1;endArrow=none;endFill=0;" edge="1" parent="1" source="PX5IsND9vOsVrEjf0ufV-29" target="PX5IsND9vOsVrEjf0ufV-199">
          <mxGeometry relative="1" as="geometry" />
        </mxCell>
        <mxCell id="PX5IsND9vOsVrEjf0ufV-282" style="edgeStyle=orthogonalEdgeStyle;rounded=0;orthogonalLoop=1;jettySize=auto;html=1;exitX=0.5;exitY=1;exitDx=0;exitDy=0;startArrow=classic;startFill=1;endArrow=none;endFill=0;" edge="1" parent="1" source="PX5IsND9vOsVrEjf0ufV-29" target="PX5IsND9vOsVrEjf0ufV-273">
          <mxGeometry relative="1" as="geometry" />
        </mxCell>
        <mxCell id="PX5IsND9vOsVrEjf0ufV-29" value="Exhibit" style="shape=table;startSize=30;container=1;collapsible=1;childLayout=tableLayout;fixedRows=1;rowLines=0;fontStyle=1;align=center;resizeLast=1;" vertex="1" parent="1">
          <mxGeometry x="1460" y="540" width="330" height="190" as="geometry" />
        </mxCell>
        <mxCell id="PX5IsND9vOsVrEjf0ufV-30" value="" style="shape=partialRectangle;collapsible=0;dropTarget=0;pointerEvents=0;fillColor=none;top=0;left=0;bottom=1;right=0;points=[[0,0.5],[1,0.5]];portConstraint=eastwest;align=center;" vertex="1" parent="PX5IsND9vOsVrEjf0ufV-29">
          <mxGeometry y="30" width="330" height="30" as="geometry" />
        </mxCell>
        <mxCell id="PX5IsND9vOsVrEjf0ufV-31" value="id" style="shape=partialRectangle;connectable=0;fillColor=none;top=0;left=0;bottom=0;right=0;fontStyle=1;overflow=hidden;align=center;" vertex="1" parent="PX5IsND9vOsVrEjf0ufV-30">
          <mxGeometry width="110" height="30" as="geometry" />
        </mxCell>
        <mxCell id="PX5IsND9vOsVrEjf0ufV-32" value="int" style="shape=partialRectangle;connectable=0;fillColor=none;top=0;left=0;bottom=0;right=0;align=center;spacingLeft=6;fontStyle=5;overflow=hidden;" vertex="1" parent="PX5IsND9vOsVrEjf0ufV-30">
          <mxGeometry x="110" width="130" height="30" as="geometry" />
        </mxCell>
        <mxCell id="PX5IsND9vOsVrEjf0ufV-33" value="PK M" style="shape=partialRectangle;connectable=0;fillColor=none;top=0;left=0;bottom=0;right=0;align=center;spacingLeft=6;fontStyle=5;overflow=hidden;" vertex="1" parent="PX5IsND9vOsVrEjf0ufV-30">
          <mxGeometry x="240" width="90" height="30" as="geometry" />
        </mxCell>
        <mxCell id="PX5IsND9vOsVrEjf0ufV-34" value="" style="shape=partialRectangle;collapsible=0;dropTarget=0;pointerEvents=0;fillColor=none;top=0;left=0;bottom=0;right=0;points=[[0,0.5],[1,0.5]];portConstraint=eastwest;align=center;" vertex="1" parent="PX5IsND9vOsVrEjf0ufV-29">
          <mxGeometry y="60" width="330" height="30" as="geometry" />
        </mxCell>
        <mxCell id="PX5IsND9vOsVrEjf0ufV-35" value="Name" style="shape=partialRectangle;connectable=0;fillColor=none;top=0;left=0;bottom=0;right=0;editable=1;overflow=hidden;align=center;" vertex="1" parent="PX5IsND9vOsVrEjf0ufV-34">
          <mxGeometry width="110" height="30" as="geometry" />
        </mxCell>
        <mxCell id="PX5IsND9vOsVrEjf0ufV-36" value="varchar(200)" style="shape=partialRectangle;connectable=0;fillColor=none;top=0;left=0;bottom=0;right=0;align=center;spacingLeft=6;overflow=hidden;" vertex="1" parent="PX5IsND9vOsVrEjf0ufV-34">
          <mxGeometry x="110" width="130" height="30" as="geometry" />
        </mxCell>
        <mxCell id="PX5IsND9vOsVrEjf0ufV-37" value="M" style="shape=partialRectangle;connectable=0;fillColor=none;top=0;left=0;bottom=0;right=0;align=center;spacingLeft=6;overflow=hidden;" vertex="1" parent="PX5IsND9vOsVrEjf0ufV-34">
          <mxGeometry x="240" width="90" height="30" as="geometry" />
        </mxCell>
        <mxCell id="PX5IsND9vOsVrEjf0ufV-38" value="" style="shape=partialRectangle;collapsible=0;dropTarget=0;pointerEvents=0;fillColor=none;top=0;left=0;bottom=0;right=0;points=[[0,0.5],[1,0.5]];portConstraint=eastwest;align=center;" vertex="1" parent="PX5IsND9vOsVrEjf0ufV-29">
          <mxGeometry y="90" width="330" height="30" as="geometry" />
        </mxCell>
        <mxCell id="PX5IsND9vOsVrEjf0ufV-39" value="Description" style="shape=partialRectangle;connectable=0;fillColor=none;top=0;left=0;bottom=0;right=0;editable=1;overflow=hidden;align=center;" vertex="1" parent="PX5IsND9vOsVrEjf0ufV-38">
          <mxGeometry width="110" height="30" as="geometry" />
        </mxCell>
        <mxCell id="PX5IsND9vOsVrEjf0ufV-40" value="text" style="shape=partialRectangle;connectable=0;fillColor=none;top=0;left=0;bottom=0;right=0;align=center;spacingLeft=6;overflow=hidden;" vertex="1" parent="PX5IsND9vOsVrEjf0ufV-38">
          <mxGeometry x="110" width="130" height="30" as="geometry" />
        </mxCell>
        <mxCell id="PX5IsND9vOsVrEjf0ufV-41" style="shape=partialRectangle;connectable=0;fillColor=none;top=0;left=0;bottom=0;right=0;align=center;spacingLeft=6;overflow=hidden;" vertex="1" parent="PX5IsND9vOsVrEjf0ufV-38">
          <mxGeometry x="240" width="90" height="30" as="geometry" />
        </mxCell>
        <mxCell id="PX5IsND9vOsVrEjf0ufV-42" value="" style="shape=partialRectangle;collapsible=0;dropTarget=0;pointerEvents=0;fillColor=none;top=0;left=0;bottom=0;right=0;points=[[0,0.5],[1,0.5]];portConstraint=eastwest;align=center;" vertex="1" parent="PX5IsND9vOsVrEjf0ufV-29">
          <mxGeometry y="120" width="330" height="30" as="geometry" />
        </mxCell>
        <mxCell id="PX5IsND9vOsVrEjf0ufV-43" value="Type" style="shape=partialRectangle;connectable=0;fillColor=none;top=0;left=0;bottom=0;right=0;editable=1;overflow=hidden;align=center;" vertex="1" parent="PX5IsND9vOsVrEjf0ufV-42">
          <mxGeometry width="110" height="30" as="geometry" />
        </mxCell>
        <mxCell id="PX5IsND9vOsVrEjf0ufV-44" value="varchar(50)" style="shape=partialRectangle;connectable=0;fillColor=none;top=0;left=0;bottom=0;right=0;align=center;spacingLeft=6;overflow=hidden;" vertex="1" parent="PX5IsND9vOsVrEjf0ufV-42">
          <mxGeometry x="110" width="130" height="30" as="geometry" />
        </mxCell>
        <mxCell id="PX5IsND9vOsVrEjf0ufV-45" value="M" style="shape=partialRectangle;connectable=0;fillColor=none;top=0;left=0;bottom=0;right=0;align=center;spacingLeft=6;overflow=hidden;" vertex="1" parent="PX5IsND9vOsVrEjf0ufV-42">
          <mxGeometry x="240" width="90" height="30" as="geometry" />
        </mxCell>
        <mxCell id="PX5IsND9vOsVrEjf0ufV-46" value="" style="shape=partialRectangle;collapsible=0;dropTarget=0;pointerEvents=0;fillColor=none;top=0;left=0;bottom=0;right=0;points=[[0,0.5],[1,0.5]];portConstraint=eastwest;align=center;" vertex="1" parent="PX5IsND9vOsVrEjf0ufV-29">
          <mxGeometry y="150" width="330" height="30" as="geometry" />
        </mxCell>
        <mxCell id="PX5IsND9vOsVrEjf0ufV-47" value="Date" style="shape=partialRectangle;connectable=0;fillColor=none;top=0;left=0;bottom=0;right=0;editable=1;overflow=hidden;align=center;" vertex="1" parent="PX5IsND9vOsVrEjf0ufV-46">
          <mxGeometry width="110" height="30" as="geometry" />
        </mxCell>
        <mxCell id="PX5IsND9vOsVrEjf0ufV-48" value="date" style="shape=partialRectangle;connectable=0;fillColor=none;top=0;left=0;bottom=0;right=0;align=center;spacingLeft=6;overflow=hidden;" vertex="1" parent="PX5IsND9vOsVrEjf0ufV-46">
          <mxGeometry x="110" width="130" height="30" as="geometry" />
        </mxCell>
        <mxCell id="PX5IsND9vOsVrEjf0ufV-49" value="" style="shape=partialRectangle;connectable=0;fillColor=none;top=0;left=0;bottom=0;right=0;align=center;spacingLeft=6;overflow=hidden;" vertex="1" parent="PX5IsND9vOsVrEjf0ufV-46">
          <mxGeometry x="240" width="90" height="30" as="geometry" />
        </mxCell>
        <mxCell id="PX5IsND9vOsVrEjf0ufV-208" style="edgeStyle=orthogonalEdgeStyle;rounded=0;orthogonalLoop=1;jettySize=auto;html=1;exitX=0.5;exitY=1;exitDx=0;exitDy=0;startArrow=classic;startFill=1;endArrow=none;endFill=0;" edge="1" parent="1" source="PX5IsND9vOsVrEjf0ufV-50" target="PX5IsND9vOsVrEjf0ufV-199">
          <mxGeometry relative="1" as="geometry" />
        </mxCell>
        <mxCell id="PX5IsND9vOsVrEjf0ufV-50" value="Author" style="shape=table;startSize=30;container=1;collapsible=1;childLayout=tableLayout;fixedRows=1;rowLines=0;fontStyle=1;align=center;resizeLast=1;" vertex="1" parent="1">
          <mxGeometry x="1460" y="80" width="330" height="190" as="geometry" />
        </mxCell>
        <mxCell id="PX5IsND9vOsVrEjf0ufV-51" value="" style="shape=partialRectangle;collapsible=0;dropTarget=0;pointerEvents=0;fillColor=none;top=0;left=0;bottom=1;right=0;points=[[0,0.5],[1,0.5]];portConstraint=eastwest;align=center;" vertex="1" parent="PX5IsND9vOsVrEjf0ufV-50">
          <mxGeometry y="30" width="330" height="30" as="geometry" />
        </mxCell>
        <mxCell id="PX5IsND9vOsVrEjf0ufV-52" value="id" style="shape=partialRectangle;connectable=0;fillColor=none;top=0;left=0;bottom=0;right=0;fontStyle=1;overflow=hidden;align=center;" vertex="1" parent="PX5IsND9vOsVrEjf0ufV-51">
          <mxGeometry width="110" height="30" as="geometry" />
        </mxCell>
        <mxCell id="PX5IsND9vOsVrEjf0ufV-53" value="int" style="shape=partialRectangle;connectable=0;fillColor=none;top=0;left=0;bottom=0;right=0;align=center;spacingLeft=6;fontStyle=5;overflow=hidden;" vertex="1" parent="PX5IsND9vOsVrEjf0ufV-51">
          <mxGeometry x="110" width="130" height="30" as="geometry" />
        </mxCell>
        <mxCell id="PX5IsND9vOsVrEjf0ufV-54" value="PK M" style="shape=partialRectangle;connectable=0;fillColor=none;top=0;left=0;bottom=0;right=0;align=center;spacingLeft=6;fontStyle=5;overflow=hidden;" vertex="1" parent="PX5IsND9vOsVrEjf0ufV-51">
          <mxGeometry x="240" width="90" height="30" as="geometry" />
        </mxCell>
        <mxCell id="PX5IsND9vOsVrEjf0ufV-55" value="" style="shape=partialRectangle;collapsible=0;dropTarget=0;pointerEvents=0;fillColor=none;top=0;left=0;bottom=0;right=0;points=[[0,0.5],[1,0.5]];portConstraint=eastwest;align=center;" vertex="1" parent="PX5IsND9vOsVrEjf0ufV-50">
          <mxGeometry y="60" width="330" height="30" as="geometry" />
        </mxCell>
        <mxCell id="PX5IsND9vOsVrEjf0ufV-56" value="FirstName" style="shape=partialRectangle;connectable=0;fillColor=none;top=0;left=0;bottom=0;right=0;editable=1;overflow=hidden;align=center;" vertex="1" parent="PX5IsND9vOsVrEjf0ufV-55">
          <mxGeometry width="110" height="30" as="geometry" />
        </mxCell>
        <mxCell id="PX5IsND9vOsVrEjf0ufV-57" value="varchar(100)" style="shape=partialRectangle;connectable=0;fillColor=none;top=0;left=0;bottom=0;right=0;align=center;spacingLeft=6;overflow=hidden;" vertex="1" parent="PX5IsND9vOsVrEjf0ufV-55">
          <mxGeometry x="110" width="130" height="30" as="geometry" />
        </mxCell>
        <mxCell id="PX5IsND9vOsVrEjf0ufV-58" value="M" style="shape=partialRectangle;connectable=0;fillColor=none;top=0;left=0;bottom=0;right=0;align=center;spacingLeft=6;overflow=hidden;" vertex="1" parent="PX5IsND9vOsVrEjf0ufV-55">
          <mxGeometry x="240" width="90" height="30" as="geometry" />
        </mxCell>
        <mxCell id="PX5IsND9vOsVrEjf0ufV-248" value="" style="shape=partialRectangle;collapsible=0;dropTarget=0;pointerEvents=0;fillColor=none;top=0;left=0;bottom=0;right=0;points=[[0,0.5],[1,0.5]];portConstraint=eastwest;align=center;" vertex="1" parent="PX5IsND9vOsVrEjf0ufV-50">
          <mxGeometry y="90" width="330" height="30" as="geometry" />
        </mxCell>
        <mxCell id="PX5IsND9vOsVrEjf0ufV-249" value="SecondName" style="shape=partialRectangle;connectable=0;fillColor=none;top=0;left=0;bottom=0;right=0;editable=1;overflow=hidden;align=center;" vertex="1" parent="PX5IsND9vOsVrEjf0ufV-248">
          <mxGeometry width="110" height="30" as="geometry" />
        </mxCell>
        <mxCell id="PX5IsND9vOsVrEjf0ufV-250" value="varchar(100)" style="shape=partialRectangle;connectable=0;fillColor=none;top=0;left=0;bottom=0;right=0;align=center;spacingLeft=6;overflow=hidden;" vertex="1" parent="PX5IsND9vOsVrEjf0ufV-248">
          <mxGeometry x="110" width="130" height="30" as="geometry" />
        </mxCell>
        <mxCell id="PX5IsND9vOsVrEjf0ufV-251" value="M" style="shape=partialRectangle;connectable=0;fillColor=none;top=0;left=0;bottom=0;right=0;align=center;spacingLeft=6;overflow=hidden;" vertex="1" parent="PX5IsND9vOsVrEjf0ufV-248">
          <mxGeometry x="240" width="90" height="30" as="geometry" />
        </mxCell>
        <mxCell id="PX5IsND9vOsVrEjf0ufV-59" value="" style="shape=partialRectangle;collapsible=0;dropTarget=0;pointerEvents=0;fillColor=none;top=0;left=0;bottom=0;right=0;points=[[0,0.5],[1,0.5]];portConstraint=eastwest;align=center;" vertex="1" parent="PX5IsND9vOsVrEjf0ufV-50">
          <mxGeometry y="120" width="330" height="30" as="geometry" />
        </mxCell>
        <mxCell id="PX5IsND9vOsVrEjf0ufV-60" value="country" style="shape=partialRectangle;connectable=0;fillColor=none;top=0;left=0;bottom=0;right=0;editable=1;overflow=hidden;align=center;" vertex="1" parent="PX5IsND9vOsVrEjf0ufV-59">
          <mxGeometry width="110" height="30" as="geometry" />
        </mxCell>
        <mxCell id="PX5IsND9vOsVrEjf0ufV-61" value="varchar(70) " style="shape=partialRectangle;connectable=0;fillColor=none;top=0;left=0;bottom=0;right=0;align=center;spacingLeft=6;overflow=hidden;" vertex="1" parent="PX5IsND9vOsVrEjf0ufV-59">
          <mxGeometry x="110" width="130" height="30" as="geometry" />
        </mxCell>
        <mxCell id="PX5IsND9vOsVrEjf0ufV-62" style="shape=partialRectangle;connectable=0;fillColor=none;top=0;left=0;bottom=0;right=0;align=center;spacingLeft=6;overflow=hidden;" vertex="1" parent="PX5IsND9vOsVrEjf0ufV-59">
          <mxGeometry x="240" width="90" height="30" as="geometry" />
        </mxCell>
        <mxCell id="PX5IsND9vOsVrEjf0ufV-63" value="" style="shape=partialRectangle;collapsible=0;dropTarget=0;pointerEvents=0;fillColor=none;top=0;left=0;bottom=0;right=0;points=[[0,0.5],[1,0.5]];portConstraint=eastwest;align=center;" vertex="1" parent="PX5IsND9vOsVrEjf0ufV-50">
          <mxGeometry y="150" width="330" height="30" as="geometry" />
        </mxCell>
        <mxCell id="PX5IsND9vOsVrEjf0ufV-64" value="biography" style="shape=partialRectangle;connectable=0;fillColor=none;top=0;left=0;bottom=0;right=0;editable=1;overflow=hidden;align=center;" vertex="1" parent="PX5IsND9vOsVrEjf0ufV-63">
          <mxGeometry width="110" height="30" as="geometry" />
        </mxCell>
        <mxCell id="PX5IsND9vOsVrEjf0ufV-65" value="text" style="shape=partialRectangle;connectable=0;fillColor=none;top=0;left=0;bottom=0;right=0;align=center;spacingLeft=6;overflow=hidden;" vertex="1" parent="PX5IsND9vOsVrEjf0ufV-63">
          <mxGeometry x="110" width="130" height="30" as="geometry" />
        </mxCell>
        <mxCell id="PX5IsND9vOsVrEjf0ufV-66" style="shape=partialRectangle;connectable=0;fillColor=none;top=0;left=0;bottom=0;right=0;align=center;spacingLeft=6;overflow=hidden;" vertex="1" parent="PX5IsND9vOsVrEjf0ufV-63">
          <mxGeometry x="240" width="90" height="30" as="geometry" />
        </mxCell>
        <mxCell id="PX5IsND9vOsVrEjf0ufV-169" style="edgeStyle=orthogonalEdgeStyle;rounded=0;orthogonalLoop=1;jettySize=auto;html=1;exitX=0.5;exitY=0;exitDx=0;exitDy=0;entryX=0.5;entryY=1;entryDx=0;entryDy=0;startArrow=classic;startFill=1;endArrow=none;endFill=0;" edge="1" parent="1" source="PX5IsND9vOsVrEjf0ufV-67" target="PX5IsND9vOsVrEjf0ufV-147">
          <mxGeometry relative="1" as="geometry" />
        </mxCell>
        <mxCell id="PX5IsND9vOsVrEjf0ufV-67" value="Organizer" style="shape=table;startSize=30;container=1;collapsible=1;childLayout=tableLayout;fixedRows=1;rowLines=0;fontStyle=1;align=center;resizeLast=1;" vertex="1" parent="1">
          <mxGeometry x="920" y="980" width="330" height="130" as="geometry" />
        </mxCell>
        <mxCell id="PX5IsND9vOsVrEjf0ufV-68" value="" style="shape=partialRectangle;collapsible=0;dropTarget=0;pointerEvents=0;fillColor=none;top=0;left=0;bottom=1;right=0;points=[[0,0.5],[1,0.5]];portConstraint=eastwest;align=center;" vertex="1" parent="PX5IsND9vOsVrEjf0ufV-67">
          <mxGeometry y="30" width="330" height="30" as="geometry" />
        </mxCell>
        <mxCell id="PX5IsND9vOsVrEjf0ufV-69" value="id" style="shape=partialRectangle;connectable=0;fillColor=none;top=0;left=0;bottom=0;right=0;fontStyle=1;overflow=hidden;align=center;" vertex="1" parent="PX5IsND9vOsVrEjf0ufV-68">
          <mxGeometry width="110" height="30" as="geometry" />
        </mxCell>
        <mxCell id="PX5IsND9vOsVrEjf0ufV-70" value="int" style="shape=partialRectangle;connectable=0;fillColor=none;top=0;left=0;bottom=0;right=0;align=center;spacingLeft=6;fontStyle=5;overflow=hidden;" vertex="1" parent="PX5IsND9vOsVrEjf0ufV-68">
          <mxGeometry x="110" width="130" height="30" as="geometry" />
        </mxCell>
        <mxCell id="PX5IsND9vOsVrEjf0ufV-71" value="PK M" style="shape=partialRectangle;connectable=0;fillColor=none;top=0;left=0;bottom=0;right=0;align=center;spacingLeft=6;fontStyle=5;overflow=hidden;" vertex="1" parent="PX5IsND9vOsVrEjf0ufV-68">
          <mxGeometry x="240" width="90" height="30" as="geometry" />
        </mxCell>
        <mxCell id="PX5IsND9vOsVrEjf0ufV-72" value="" style="shape=partialRectangle;collapsible=0;dropTarget=0;pointerEvents=0;fillColor=none;top=0;left=0;bottom=0;right=0;points=[[0,0.5],[1,0.5]];portConstraint=eastwest;align=center;" vertex="1" parent="PX5IsND9vOsVrEjf0ufV-67">
          <mxGeometry y="60" width="330" height="30" as="geometry" />
        </mxCell>
        <mxCell id="PX5IsND9vOsVrEjf0ufV-73" value="FirstName" style="shape=partialRectangle;connectable=0;fillColor=none;top=0;left=0;bottom=0;right=0;editable=1;overflow=hidden;align=center;" vertex="1" parent="PX5IsND9vOsVrEjf0ufV-72">
          <mxGeometry width="110" height="30" as="geometry" />
        </mxCell>
        <mxCell id="PX5IsND9vOsVrEjf0ufV-74" value="varchar(100)" style="shape=partialRectangle;connectable=0;fillColor=none;top=0;left=0;bottom=0;right=0;align=center;spacingLeft=6;overflow=hidden;" vertex="1" parent="PX5IsND9vOsVrEjf0ufV-72">
          <mxGeometry x="110" width="130" height="30" as="geometry" />
        </mxCell>
        <mxCell id="PX5IsND9vOsVrEjf0ufV-75" value="M" style="shape=partialRectangle;connectable=0;fillColor=none;top=0;left=0;bottom=0;right=0;align=center;spacingLeft=6;overflow=hidden;" vertex="1" parent="PX5IsND9vOsVrEjf0ufV-72">
          <mxGeometry x="240" width="90" height="30" as="geometry" />
        </mxCell>
        <mxCell id="PX5IsND9vOsVrEjf0ufV-252" value="" style="shape=partialRectangle;collapsible=0;dropTarget=0;pointerEvents=0;fillColor=none;top=0;left=0;bottom=0;right=0;points=[[0,0.5],[1,0.5]];portConstraint=eastwest;align=center;" vertex="1" parent="PX5IsND9vOsVrEjf0ufV-67">
          <mxGeometry y="90" width="330" height="30" as="geometry" />
        </mxCell>
        <mxCell id="PX5IsND9vOsVrEjf0ufV-253" value="SecondName" style="shape=partialRectangle;connectable=0;fillColor=none;top=0;left=0;bottom=0;right=0;editable=1;overflow=hidden;align=center;" vertex="1" parent="PX5IsND9vOsVrEjf0ufV-252">
          <mxGeometry width="110" height="30" as="geometry" />
        </mxCell>
        <mxCell id="PX5IsND9vOsVrEjf0ufV-254" value="varchar(100)" style="shape=partialRectangle;connectable=0;fillColor=none;top=0;left=0;bottom=0;right=0;align=center;spacingLeft=6;overflow=hidden;" vertex="1" parent="PX5IsND9vOsVrEjf0ufV-252">
          <mxGeometry x="110" width="130" height="30" as="geometry" />
        </mxCell>
        <mxCell id="PX5IsND9vOsVrEjf0ufV-255" value="M" style="shape=partialRectangle;connectable=0;fillColor=none;top=0;left=0;bottom=0;right=0;align=center;spacingLeft=6;overflow=hidden;" vertex="1" parent="PX5IsND9vOsVrEjf0ufV-252">
          <mxGeometry x="240" width="90" height="30" as="geometry" />
        </mxCell>
        <mxCell id="PX5IsND9vOsVrEjf0ufV-170" style="edgeStyle=orthogonalEdgeStyle;rounded=0;orthogonalLoop=1;jettySize=auto;html=1;exitX=0.5;exitY=1;exitDx=0;exitDy=0;startArrow=classic;startFill=1;endArrow=none;endFill=0;" edge="1" parent="1" source="PX5IsND9vOsVrEjf0ufV-81" target="PX5IsND9vOsVrEjf0ufV-147">
          <mxGeometry relative="1" as="geometry" />
        </mxCell>
        <mxCell id="PX5IsND9vOsVrEjf0ufV-220" style="edgeStyle=orthogonalEdgeStyle;rounded=0;orthogonalLoop=1;jettySize=auto;html=1;exitX=0.5;exitY=0;exitDx=0;exitDy=0;entryX=0;entryY=0.5;entryDx=0;entryDy=0;startArrow=classic;startFill=1;endArrow=none;endFill=0;" edge="1" parent="1" source="PX5IsND9vOsVrEjf0ufV-81" target="PX5IsND9vOsVrEjf0ufV-215">
          <mxGeometry relative="1" as="geometry" />
        </mxCell>
        <mxCell id="PX5IsND9vOsVrEjf0ufV-81" value="Exhibition" style="shape=table;startSize=30;container=1;collapsible=1;childLayout=tableLayout;fixedRows=1;rowLines=0;fontStyle=1;align=center;resizeLast=1;" vertex="1" parent="1">
          <mxGeometry x="920" y="570" width="330" height="130" as="geometry" />
        </mxCell>
        <mxCell id="PX5IsND9vOsVrEjf0ufV-82" value="" style="shape=partialRectangle;collapsible=0;dropTarget=0;pointerEvents=0;fillColor=none;top=0;left=0;bottom=1;right=0;points=[[0,0.5],[1,0.5]];portConstraint=eastwest;align=center;" vertex="1" parent="PX5IsND9vOsVrEjf0ufV-81">
          <mxGeometry y="30" width="330" height="30" as="geometry" />
        </mxCell>
        <mxCell id="PX5IsND9vOsVrEjf0ufV-83" value="Id" style="shape=partialRectangle;connectable=0;fillColor=none;top=0;left=0;bottom=0;right=0;fontStyle=1;overflow=hidden;align=center;" vertex="1" parent="PX5IsND9vOsVrEjf0ufV-82">
          <mxGeometry width="110" height="30" as="geometry" />
        </mxCell>
        <mxCell id="PX5IsND9vOsVrEjf0ufV-84" value="int" style="shape=partialRectangle;connectable=0;fillColor=none;top=0;left=0;bottom=0;right=0;align=center;spacingLeft=6;fontStyle=5;overflow=hidden;" vertex="1" parent="PX5IsND9vOsVrEjf0ufV-82">
          <mxGeometry x="110" width="130" height="30" as="geometry" />
        </mxCell>
        <mxCell id="PX5IsND9vOsVrEjf0ufV-85" value="PK M" style="shape=partialRectangle;connectable=0;fillColor=none;top=0;left=0;bottom=0;right=0;align=center;spacingLeft=6;fontStyle=5;overflow=hidden;" vertex="1" parent="PX5IsND9vOsVrEjf0ufV-82">
          <mxGeometry x="240" width="90" height="30" as="geometry" />
        </mxCell>
        <mxCell id="PX5IsND9vOsVrEjf0ufV-86" value="" style="shape=partialRectangle;collapsible=0;dropTarget=0;pointerEvents=0;fillColor=none;top=0;left=0;bottom=0;right=0;points=[[0,0.5],[1,0.5]];portConstraint=eastwest;align=center;" vertex="1" parent="PX5IsND9vOsVrEjf0ufV-81">
          <mxGeometry y="60" width="330" height="30" as="geometry" />
        </mxCell>
        <mxCell id="PX5IsND9vOsVrEjf0ufV-87" value="Name" style="shape=partialRectangle;connectable=0;fillColor=none;top=0;left=0;bottom=0;right=0;editable=1;overflow=hidden;align=center;" vertex="1" parent="PX5IsND9vOsVrEjf0ufV-86">
          <mxGeometry width="110" height="30" as="geometry" />
        </mxCell>
        <mxCell id="PX5IsND9vOsVrEjf0ufV-88" value="varchar(200)" style="shape=partialRectangle;connectable=0;fillColor=none;top=0;left=0;bottom=0;right=0;align=center;spacingLeft=6;overflow=hidden;" vertex="1" parent="PX5IsND9vOsVrEjf0ufV-86">
          <mxGeometry x="110" width="130" height="30" as="geometry" />
        </mxCell>
        <mxCell id="PX5IsND9vOsVrEjf0ufV-89" value="M" style="shape=partialRectangle;connectable=0;fillColor=none;top=0;left=0;bottom=0;right=0;align=center;spacingLeft=6;overflow=hidden;" vertex="1" parent="PX5IsND9vOsVrEjf0ufV-86">
          <mxGeometry x="240" width="90" height="30" as="geometry" />
        </mxCell>
        <mxCell id="PX5IsND9vOsVrEjf0ufV-90" value="" style="shape=partialRectangle;collapsible=0;dropTarget=0;pointerEvents=0;fillColor=none;top=0;left=0;bottom=0;right=0;points=[[0,0.5],[1,0.5]];portConstraint=eastwest;align=center;" vertex="1" parent="PX5IsND9vOsVrEjf0ufV-81">
          <mxGeometry y="90" width="330" height="30" as="geometry" />
        </mxCell>
        <mxCell id="PX5IsND9vOsVrEjf0ufV-91" value="Period" style="shape=partialRectangle;connectable=0;fillColor=none;top=0;left=0;bottom=0;right=0;editable=1;overflow=hidden;align=center;" vertex="1" parent="PX5IsND9vOsVrEjf0ufV-90">
          <mxGeometry width="110" height="30" as="geometry" />
        </mxCell>
        <mxCell id="PX5IsND9vOsVrEjf0ufV-92" value="date" style="shape=partialRectangle;connectable=0;fillColor=none;top=0;left=0;bottom=0;right=0;align=center;spacingLeft=6;overflow=hidden;" vertex="1" parent="PX5IsND9vOsVrEjf0ufV-90">
          <mxGeometry x="110" width="130" height="30" as="geometry" />
        </mxCell>
        <mxCell id="PX5IsND9vOsVrEjf0ufV-93" style="shape=partialRectangle;connectable=0;fillColor=none;top=0;left=0;bottom=0;right=0;align=center;spacingLeft=6;overflow=hidden;" vertex="1" parent="PX5IsND9vOsVrEjf0ufV-90">
          <mxGeometry x="240" width="90" height="30" as="geometry" />
        </mxCell>
        <mxCell id="PX5IsND9vOsVrEjf0ufV-94" style="edgeStyle=orthogonalEdgeStyle;rounded=0;orthogonalLoop=1;jettySize=auto;html=1;exitX=0.5;exitY=1;exitDx=0;exitDy=0;entryX=0.5;entryY=0;entryDx=0;entryDy=0;startArrow=classic;startFill=1;endArrow=none;endFill=0;" edge="1" parent="1" source="PX5IsND9vOsVrEjf0ufV-95" target="PX5IsND9vOsVrEjf0ufV-113">
          <mxGeometry relative="1" as="geometry" />
        </mxCell>
        <mxCell id="PX5IsND9vOsVrEjf0ufV-95" value="Ticket" style="shape=table;startSize=30;container=1;collapsible=1;childLayout=tableLayout;fixedRows=1;rowLines=0;fontStyle=1;align=center;resizeLast=1;" vertex="1" parent="1">
          <mxGeometry x="490" y="260" width="330" height="160" as="geometry" />
        </mxCell>
        <mxCell id="PX5IsND9vOsVrEjf0ufV-96" value="" style="shape=partialRectangle;collapsible=0;dropTarget=0;pointerEvents=0;fillColor=none;top=0;left=0;bottom=1;right=0;points=[[0,0.5],[1,0.5]];portConstraint=eastwest;align=center;" vertex="1" parent="PX5IsND9vOsVrEjf0ufV-95">
          <mxGeometry y="30" width="330" height="30" as="geometry" />
        </mxCell>
        <mxCell id="PX5IsND9vOsVrEjf0ufV-97" value="id" style="shape=partialRectangle;connectable=0;fillColor=none;top=0;left=0;bottom=0;right=0;fontStyle=1;overflow=hidden;align=center;" vertex="1" parent="PX5IsND9vOsVrEjf0ufV-96">
          <mxGeometry width="110" height="30" as="geometry" />
        </mxCell>
        <mxCell id="PX5IsND9vOsVrEjf0ufV-98" value="int" style="shape=partialRectangle;connectable=0;fillColor=none;top=0;left=0;bottom=0;right=0;align=center;spacingLeft=6;fontStyle=5;overflow=hidden;" vertex="1" parent="PX5IsND9vOsVrEjf0ufV-96">
          <mxGeometry x="110" width="130" height="30" as="geometry" />
        </mxCell>
        <mxCell id="PX5IsND9vOsVrEjf0ufV-99" value="PK M" style="shape=partialRectangle;connectable=0;fillColor=none;top=0;left=0;bottom=0;right=0;align=center;spacingLeft=6;fontStyle=5;overflow=hidden;" vertex="1" parent="PX5IsND9vOsVrEjf0ufV-96">
          <mxGeometry x="240" width="90" height="30" as="geometry" />
        </mxCell>
        <mxCell id="PX5IsND9vOsVrEjf0ufV-100" value="" style="shape=partialRectangle;collapsible=0;dropTarget=0;pointerEvents=0;fillColor=none;top=0;left=0;bottom=0;right=0;points=[[0,0.5],[1,0.5]];portConstraint=eastwest;align=center;" vertex="1" parent="PX5IsND9vOsVrEjf0ufV-95">
          <mxGeometry y="60" width="330" height="30" as="geometry" />
        </mxCell>
        <mxCell id="PX5IsND9vOsVrEjf0ufV-101" value="price" style="shape=partialRectangle;connectable=0;fillColor=none;top=0;left=0;bottom=0;right=0;editable=1;overflow=hidden;align=center;" vertex="1" parent="PX5IsND9vOsVrEjf0ufV-100">
          <mxGeometry width="110" height="30" as="geometry" />
        </mxCell>
        <mxCell id="PX5IsND9vOsVrEjf0ufV-102" value="int" style="shape=partialRectangle;connectable=0;fillColor=none;top=0;left=0;bottom=0;right=0;align=center;spacingLeft=6;overflow=hidden;" vertex="1" parent="PX5IsND9vOsVrEjf0ufV-100">
          <mxGeometry x="110" width="130" height="30" as="geometry" />
        </mxCell>
        <mxCell id="PX5IsND9vOsVrEjf0ufV-103" value="M" style="shape=partialRectangle;connectable=0;fillColor=none;top=0;left=0;bottom=0;right=0;align=center;spacingLeft=6;overflow=hidden;" vertex="1" parent="PX5IsND9vOsVrEjf0ufV-100">
          <mxGeometry x="240" width="90" height="30" as="geometry" />
        </mxCell>
        <mxCell id="PX5IsND9vOsVrEjf0ufV-104" value="" style="shape=partialRectangle;collapsible=0;dropTarget=0;pointerEvents=0;fillColor=none;top=0;left=0;bottom=0;right=0;points=[[0,0.5],[1,0.5]];portConstraint=eastwest;align=center;" vertex="1" parent="PX5IsND9vOsVrEjf0ufV-95">
          <mxGeometry y="90" width="330" height="30" as="geometry" />
        </mxCell>
        <mxCell id="PX5IsND9vOsVrEjf0ufV-105" value="period" style="shape=partialRectangle;connectable=0;fillColor=none;top=0;left=0;bottom=0;right=0;editable=1;overflow=hidden;align=center;" vertex="1" parent="PX5IsND9vOsVrEjf0ufV-104">
          <mxGeometry width="110" height="30" as="geometry" />
        </mxCell>
        <mxCell id="PX5IsND9vOsVrEjf0ufV-106" value="date" style="shape=partialRectangle;connectable=0;fillColor=none;top=0;left=0;bottom=0;right=0;align=center;spacingLeft=6;overflow=hidden;" vertex="1" parent="PX5IsND9vOsVrEjf0ufV-104">
          <mxGeometry x="110" width="130" height="30" as="geometry" />
        </mxCell>
        <mxCell id="PX5IsND9vOsVrEjf0ufV-107" value="M" style="shape=partialRectangle;connectable=0;fillColor=none;top=0;left=0;bottom=0;right=0;align=center;spacingLeft=6;overflow=hidden;" vertex="1" parent="PX5IsND9vOsVrEjf0ufV-104">
          <mxGeometry x="240" width="90" height="30" as="geometry" />
        </mxCell>
        <mxCell id="PX5IsND9vOsVrEjf0ufV-108" value="" style="shape=partialRectangle;collapsible=0;dropTarget=0;pointerEvents=0;fillColor=none;top=0;left=0;bottom=0;right=0;points=[[0,0.5],[1,0.5]];portConstraint=eastwest;align=center;" vertex="1" parent="PX5IsND9vOsVrEjf0ufV-95">
          <mxGeometry y="120" width="330" height="30" as="geometry" />
        </mxCell>
        <mxCell id="PX5IsND9vOsVrEjf0ufV-109" value="type" style="shape=partialRectangle;connectable=0;fillColor=none;top=0;left=0;bottom=0;right=0;editable=1;overflow=hidden;align=center;" vertex="1" parent="PX5IsND9vOsVrEjf0ufV-108">
          <mxGeometry width="110" height="30" as="geometry" />
        </mxCell>
        <mxCell id="PX5IsND9vOsVrEjf0ufV-110" value="varchar(100)" style="shape=partialRectangle;connectable=0;fillColor=none;top=0;left=0;bottom=0;right=0;align=center;spacingLeft=6;overflow=hidden;" vertex="1" parent="PX5IsND9vOsVrEjf0ufV-108">
          <mxGeometry x="110" width="130" height="30" as="geometry" />
        </mxCell>
        <mxCell id="PX5IsND9vOsVrEjf0ufV-111" value="M" style="shape=partialRectangle;connectable=0;fillColor=none;top=0;left=0;bottom=0;right=0;align=center;spacingLeft=6;overflow=hidden;" vertex="1" parent="PX5IsND9vOsVrEjf0ufV-108">
          <mxGeometry x="240" width="90" height="30" as="geometry" />
        </mxCell>
        <mxCell id="PX5IsND9vOsVrEjf0ufV-113" value="ExhibitionBranchTicket" style="shape=table;startSize=30;container=1;collapsible=1;childLayout=tableLayout;fixedRows=1;rowLines=0;fontStyle=1;align=center;resizeLast=1;rounded=1;" vertex="1" parent="1">
          <mxGeometry x="490" y="570" width="330" height="130" as="geometry" />
        </mxCell>
        <mxCell id="PX5IsND9vOsVrEjf0ufV-126" value="" style="shape=partialRectangle;collapsible=0;dropTarget=0;pointerEvents=0;fillColor=none;top=0;left=0;bottom=0;right=0;points=[[0,0.5],[1,0.5]];portConstraint=eastwest;align=center;fontStyle=5" vertex="1" parent="PX5IsND9vOsVrEjf0ufV-113">
          <mxGeometry y="30" width="330" height="30" as="geometry" />
        </mxCell>
        <mxCell id="PX5IsND9vOsVrEjf0ufV-127" value="BranchId" style="shape=partialRectangle;connectable=0;fillColor=none;top=0;left=0;bottom=0;right=0;editable=1;overflow=hidden;align=center;fontStyle=5" vertex="1" parent="PX5IsND9vOsVrEjf0ufV-126">
          <mxGeometry width="110" height="30" as="geometry" />
        </mxCell>
        <mxCell id="PX5IsND9vOsVrEjf0ufV-128" value="int" style="shape=partialRectangle;connectable=0;fillColor=none;top=0;left=0;bottom=0;right=0;align=center;spacingLeft=6;overflow=hidden;fontStyle=5" vertex="1" parent="PX5IsND9vOsVrEjf0ufV-126">
          <mxGeometry x="110" width="130" height="30" as="geometry" />
        </mxCell>
        <mxCell id="PX5IsND9vOsVrEjf0ufV-129" value="PK FK1 M" style="shape=partialRectangle;connectable=0;fillColor=none;top=0;left=0;bottom=0;right=0;align=center;spacingLeft=6;overflow=hidden;fontStyle=5" vertex="1" parent="PX5IsND9vOsVrEjf0ufV-126">
          <mxGeometry x="240" width="90" height="30" as="geometry" />
        </mxCell>
        <mxCell id="PX5IsND9vOsVrEjf0ufV-237" value="" style="shape=partialRectangle;collapsible=0;dropTarget=0;pointerEvents=0;fillColor=none;top=0;left=0;bottom=0;right=0;points=[[0,0.5],[1,0.5]];portConstraint=eastwest;align=center;fontStyle=5" vertex="1" parent="PX5IsND9vOsVrEjf0ufV-113">
          <mxGeometry y="60" width="330" height="30" as="geometry" />
        </mxCell>
        <mxCell id="PX5IsND9vOsVrEjf0ufV-238" value="ExhibitionId" style="shape=partialRectangle;connectable=0;fillColor=none;top=0;left=0;bottom=0;right=0;editable=1;overflow=hidden;align=center;fontStyle=5" vertex="1" parent="PX5IsND9vOsVrEjf0ufV-237">
          <mxGeometry width="110" height="30" as="geometry" />
        </mxCell>
        <mxCell id="PX5IsND9vOsVrEjf0ufV-239" value="int" style="shape=partialRectangle;connectable=0;fillColor=none;top=0;left=0;bottom=0;right=0;align=center;spacingLeft=6;overflow=hidden;fontStyle=5" vertex="1" parent="PX5IsND9vOsVrEjf0ufV-237">
          <mxGeometry x="110" width="130" height="30" as="geometry" />
        </mxCell>
        <mxCell id="PX5IsND9vOsVrEjf0ufV-240" value="PK FK2 M" style="shape=partialRectangle;connectable=0;fillColor=none;top=0;left=0;bottom=0;right=0;align=center;spacingLeft=6;overflow=hidden;fontStyle=5" vertex="1" parent="PX5IsND9vOsVrEjf0ufV-237">
          <mxGeometry x="240" width="90" height="30" as="geometry" />
        </mxCell>
        <mxCell id="PX5IsND9vOsVrEjf0ufV-241" value="" style="shape=partialRectangle;collapsible=0;dropTarget=0;pointerEvents=0;fillColor=none;top=0;left=0;bottom=0;right=0;points=[[0,0.5],[1,0.5]];portConstraint=eastwest;align=center;fontStyle=5" vertex="1" parent="PX5IsND9vOsVrEjf0ufV-113">
          <mxGeometry y="90" width="330" height="30" as="geometry" />
        </mxCell>
        <mxCell id="PX5IsND9vOsVrEjf0ufV-242" value="TicketId" style="shape=partialRectangle;connectable=0;fillColor=none;top=0;left=0;bottom=0;right=0;editable=1;overflow=hidden;align=center;fontStyle=5" vertex="1" parent="PX5IsND9vOsVrEjf0ufV-241">
          <mxGeometry width="110" height="30" as="geometry" />
        </mxCell>
        <mxCell id="PX5IsND9vOsVrEjf0ufV-243" value="int" style="shape=partialRectangle;connectable=0;fillColor=none;top=0;left=0;bottom=0;right=0;align=center;spacingLeft=6;overflow=hidden;fontStyle=5" vertex="1" parent="PX5IsND9vOsVrEjf0ufV-241">
          <mxGeometry x="110" width="130" height="30" as="geometry" />
        </mxCell>
        <mxCell id="PX5IsND9vOsVrEjf0ufV-244" value="PK FK3 M" style="shape=partialRectangle;connectable=0;fillColor=none;top=0;left=0;bottom=0;right=0;align=center;spacingLeft=6;overflow=hidden;fontStyle=5" vertex="1" parent="PX5IsND9vOsVrEjf0ufV-241">
          <mxGeometry x="240" width="90" height="30" as="geometry" />
        </mxCell>
        <mxCell id="PX5IsND9vOsVrEjf0ufV-130" style="edgeStyle=orthogonalEdgeStyle;rounded=0;orthogonalLoop=1;jettySize=auto;html=1;exitX=1;exitY=0.5;exitDx=0;exitDy=0;entryX=0;entryY=0.5;entryDx=0;entryDy=0;startArrow=classic;startFill=1;endArrow=none;endFill=0;" edge="1" parent="1" source="PX5IsND9vOsVrEjf0ufV-20">
          <mxGeometry relative="1" as="geometry">
            <mxPoint x="490" y="615" as="targetPoint" />
          </mxGeometry>
        </mxCell>
        <mxCell id="PX5IsND9vOsVrEjf0ufV-131" style="edgeStyle=orthogonalEdgeStyle;rounded=0;orthogonalLoop=1;jettySize=auto;html=1;exitX=1;exitY=0.5;exitDx=0;exitDy=0;entryX=0;entryY=0.5;entryDx=0;entryDy=0;startArrow=none;startFill=0;endArrow=classic;endFill=1;" edge="1" parent="1" target="PX5IsND9vOsVrEjf0ufV-86">
          <mxGeometry relative="1" as="geometry">
            <mxPoint x="820" y="615" as="sourcePoint" />
          </mxGeometry>
        </mxCell>
        <mxCell id="PX5IsND9vOsVrEjf0ufV-132" value="FK1" style="text;html=1;resizable=0;autosize=1;align=center;verticalAlign=middle;points=[];fillColor=none;strokeColor=none;rounded=0;" vertex="1" parent="1">
          <mxGeometry x="285" y="830" width="40" height="20" as="geometry" />
        </mxCell>
        <mxCell id="PX5IsND9vOsVrEjf0ufV-147" value="ExhibitionOrganizer" style="shape=table;startSize=30;container=1;collapsible=1;childLayout=tableLayout;fixedRows=1;rowLines=0;fontStyle=1;align=center;resizeLast=1;" vertex="1" parent="1">
          <mxGeometry x="920" y="790" width="330" height="130" as="geometry" />
        </mxCell>
        <mxCell id="PX5IsND9vOsVrEjf0ufV-152" value="" style="shape=partialRectangle;collapsible=0;dropTarget=0;pointerEvents=0;fillColor=none;top=0;left=0;bottom=0;right=0;points=[[0,0.5],[1,0.5]];portConstraint=eastwest;align=center;fontStyle=5" vertex="1" parent="PX5IsND9vOsVrEjf0ufV-147">
          <mxGeometry y="30" width="330" height="30" as="geometry" />
        </mxCell>
        <mxCell id="PX5IsND9vOsVrEjf0ufV-153" value="ExhibitionId" style="shape=partialRectangle;connectable=0;fillColor=none;top=0;left=0;bottom=0;right=0;editable=1;overflow=hidden;align=center;fontStyle=5" vertex="1" parent="PX5IsND9vOsVrEjf0ufV-152">
          <mxGeometry width="110" height="30" as="geometry" />
        </mxCell>
        <mxCell id="PX5IsND9vOsVrEjf0ufV-154" value="int" style="shape=partialRectangle;connectable=0;fillColor=none;top=0;left=0;bottom=0;right=0;align=center;spacingLeft=6;overflow=hidden;fontStyle=5" vertex="1" parent="PX5IsND9vOsVrEjf0ufV-152">
          <mxGeometry x="110" width="130" height="30" as="geometry" />
        </mxCell>
        <mxCell id="PX5IsND9vOsVrEjf0ufV-155" value="PK FK1 M" style="shape=partialRectangle;connectable=0;fillColor=none;top=0;left=0;bottom=0;right=0;align=center;spacingLeft=6;overflow=hidden;fontStyle=5" vertex="1" parent="PX5IsND9vOsVrEjf0ufV-152">
          <mxGeometry x="240" width="90" height="30" as="geometry" />
        </mxCell>
        <mxCell id="PX5IsND9vOsVrEjf0ufV-294" value="" style="shape=partialRectangle;collapsible=0;dropTarget=0;pointerEvents=0;fillColor=none;top=0;left=0;bottom=0;right=0;points=[[0,0.5],[1,0.5]];portConstraint=eastwest;align=center;fontStyle=5" vertex="1" parent="PX5IsND9vOsVrEjf0ufV-147">
          <mxGeometry y="60" width="330" height="30" as="geometry" />
        </mxCell>
        <mxCell id="PX5IsND9vOsVrEjf0ufV-295" value="OrganizerId" style="shape=partialRectangle;connectable=0;fillColor=none;top=0;left=0;bottom=0;right=0;editable=1;overflow=hidden;align=center;fontStyle=5" vertex="1" parent="PX5IsND9vOsVrEjf0ufV-294">
          <mxGeometry width="110" height="30" as="geometry" />
        </mxCell>
        <mxCell id="PX5IsND9vOsVrEjf0ufV-296" value="int" style="shape=partialRectangle;connectable=0;fillColor=none;top=0;left=0;bottom=0;right=0;align=center;spacingLeft=6;overflow=hidden;fontStyle=5" vertex="1" parent="PX5IsND9vOsVrEjf0ufV-294">
          <mxGeometry x="110" width="130" height="30" as="geometry" />
        </mxCell>
        <mxCell id="PX5IsND9vOsVrEjf0ufV-297" value="PK FK2 M" style="shape=partialRectangle;connectable=0;fillColor=none;top=0;left=0;bottom=0;right=0;align=center;spacingLeft=6;overflow=hidden;fontStyle=5" vertex="1" parent="PX5IsND9vOsVrEjf0ufV-294">
          <mxGeometry x="240" width="90" height="30" as="geometry" />
        </mxCell>
        <mxCell id="PX5IsND9vOsVrEjf0ufV-156" value="" style="shape=partialRectangle;collapsible=0;dropTarget=0;pointerEvents=0;fillColor=none;top=0;left=0;bottom=0;right=0;points=[[0,0.5],[1,0.5]];portConstraint=eastwest;align=center;fontStyle=5" vertex="1" parent="PX5IsND9vOsVrEjf0ufV-147">
          <mxGeometry y="90" width="330" height="30" as="geometry" />
        </mxCell>
        <mxCell id="PX5IsND9vOsVrEjf0ufV-157" value="Post" style="shape=partialRectangle;connectable=0;fillColor=none;top=0;left=0;bottom=0;right=0;editable=1;overflow=hidden;align=center;fontStyle=0" vertex="1" parent="PX5IsND9vOsVrEjf0ufV-156">
          <mxGeometry width="110" height="30" as="geometry" />
        </mxCell>
        <mxCell id="PX5IsND9vOsVrEjf0ufV-158" value="varchar(200)" style="shape=partialRectangle;connectable=0;fillColor=none;top=0;left=0;bottom=0;right=0;align=center;spacingLeft=6;overflow=hidden;fontStyle=0" vertex="1" parent="PX5IsND9vOsVrEjf0ufV-156">
          <mxGeometry x="110" width="130" height="30" as="geometry" />
        </mxCell>
        <mxCell id="PX5IsND9vOsVrEjf0ufV-159" value="M" style="shape=partialRectangle;connectable=0;fillColor=none;top=0;left=0;bottom=0;right=0;align=center;spacingLeft=6;overflow=hidden;fontStyle=0" vertex="1" parent="PX5IsND9vOsVrEjf0ufV-156">
          <mxGeometry x="240" width="90" height="30" as="geometry" />
        </mxCell>
        <mxCell id="PX5IsND9vOsVrEjf0ufV-171" value="FK1" style="text;html=1;align=center;verticalAlign=middle;resizable=0;points=[];autosize=1;" vertex="1" parent="1">
          <mxGeometry x="1090" y="710" width="40" height="20" as="geometry" />
        </mxCell>
        <mxCell id="PX5IsND9vOsVrEjf0ufV-172" value="FK2" style="text;html=1;align=center;verticalAlign=middle;resizable=0;points=[];autosize=1;" vertex="1" parent="1">
          <mxGeometry x="1090" y="950" width="40" height="20" as="geometry" />
        </mxCell>
        <mxCell id="PX5IsND9vOsVrEjf0ufV-199" value="ExhibitAuthor" style="shape=table;startSize=30;container=1;collapsible=1;childLayout=tableLayout;fixedRows=1;rowLines=0;fontStyle=1;align=center;resizeLast=1;" vertex="1" parent="1">
          <mxGeometry x="1460" y="340" width="330" height="100" as="geometry" />
        </mxCell>
        <mxCell id="PX5IsND9vOsVrEjf0ufV-200" value="" style="shape=partialRectangle;collapsible=0;dropTarget=0;pointerEvents=0;fillColor=none;top=0;left=0;bottom=0;right=0;points=[[0,0.5],[1,0.5]];portConstraint=eastwest;align=center;fontStyle=5" vertex="1" parent="PX5IsND9vOsVrEjf0ufV-199">
          <mxGeometry y="30" width="330" height="30" as="geometry" />
        </mxCell>
        <mxCell id="PX5IsND9vOsVrEjf0ufV-201" value="ExhibitId" style="shape=partialRectangle;connectable=0;fillColor=none;top=0;left=0;bottom=0;right=0;editable=1;overflow=hidden;align=center;fontStyle=5" vertex="1" parent="PX5IsND9vOsVrEjf0ufV-200">
          <mxGeometry width="110" height="30" as="geometry" />
        </mxCell>
        <mxCell id="PX5IsND9vOsVrEjf0ufV-202" value="int" style="shape=partialRectangle;connectable=0;fillColor=none;top=0;left=0;bottom=0;right=0;align=center;spacingLeft=6;overflow=hidden;fontStyle=5" vertex="1" parent="PX5IsND9vOsVrEjf0ufV-200">
          <mxGeometry x="110" width="130" height="30" as="geometry" />
        </mxCell>
        <mxCell id="PX5IsND9vOsVrEjf0ufV-203" value="PK FK1 M" style="shape=partialRectangle;connectable=0;fillColor=none;top=0;left=0;bottom=0;right=0;align=center;spacingLeft=6;overflow=hidden;fontStyle=5" vertex="1" parent="PX5IsND9vOsVrEjf0ufV-200">
          <mxGeometry x="240" width="90" height="30" as="geometry" />
        </mxCell>
        <mxCell id="PX5IsND9vOsVrEjf0ufV-204" value="" style="shape=partialRectangle;collapsible=0;dropTarget=0;pointerEvents=0;fillColor=none;top=0;left=0;bottom=0;right=0;points=[[0,0.5],[1,0.5]];portConstraint=eastwest;align=center;fontStyle=5" vertex="1" parent="PX5IsND9vOsVrEjf0ufV-199">
          <mxGeometry y="60" width="330" height="30" as="geometry" />
        </mxCell>
        <mxCell id="PX5IsND9vOsVrEjf0ufV-205" value="AuthorId" style="shape=partialRectangle;connectable=0;fillColor=none;top=0;left=0;bottom=0;right=0;editable=1;overflow=hidden;align=center;fontStyle=5" vertex="1" parent="PX5IsND9vOsVrEjf0ufV-204">
          <mxGeometry width="110" height="30" as="geometry" />
        </mxCell>
        <mxCell id="PX5IsND9vOsVrEjf0ufV-206" value="int" style="shape=partialRectangle;connectable=0;fillColor=none;top=0;left=0;bottom=0;right=0;align=center;spacingLeft=6;overflow=hidden;fontStyle=5" vertex="1" parent="PX5IsND9vOsVrEjf0ufV-204">
          <mxGeometry x="110" width="130" height="30" as="geometry" />
        </mxCell>
        <mxCell id="PX5IsND9vOsVrEjf0ufV-207" value="PK FK2 M" style="shape=partialRectangle;connectable=0;fillColor=none;top=0;left=0;bottom=0;right=0;align=center;spacingLeft=6;overflow=hidden;fontStyle=5" vertex="1" parent="PX5IsND9vOsVrEjf0ufV-204">
          <mxGeometry x="240" width="90" height="30" as="geometry" />
        </mxCell>
        <mxCell id="PX5IsND9vOsVrEjf0ufV-210" value="ExhibitionExhibit" style="shape=table;startSize=30;container=1;collapsible=1;childLayout=tableLayout;fixedRows=1;rowLines=0;fontStyle=1;align=center;resizeLast=1;" vertex="1" parent="1">
          <mxGeometry x="1150" y="410" width="260" height="100" as="geometry" />
        </mxCell>
        <mxCell id="PX5IsND9vOsVrEjf0ufV-211" value="" style="shape=partialRectangle;collapsible=0;dropTarget=0;pointerEvents=0;fillColor=none;top=0;left=0;bottom=0;right=0;points=[[0,0.5],[1,0.5]];portConstraint=eastwest;align=center;fontStyle=5" vertex="1" parent="PX5IsND9vOsVrEjf0ufV-210">
          <mxGeometry y="30" width="260" height="30" as="geometry" />
        </mxCell>
        <mxCell id="PX5IsND9vOsVrEjf0ufV-212" value="ExhibitionId" style="shape=partialRectangle;connectable=0;fillColor=none;top=0;left=0;bottom=0;right=0;editable=1;overflow=hidden;align=center;fontStyle=5" vertex="1" parent="PX5IsND9vOsVrEjf0ufV-211">
          <mxGeometry width="110" height="30" as="geometry" />
        </mxCell>
        <mxCell id="PX5IsND9vOsVrEjf0ufV-213" value="int" style="shape=partialRectangle;connectable=0;fillColor=none;top=0;left=0;bottom=0;right=0;align=center;spacingLeft=6;overflow=hidden;fontStyle=5" vertex="1" parent="PX5IsND9vOsVrEjf0ufV-211">
          <mxGeometry x="110" width="50" height="30" as="geometry" />
        </mxCell>
        <mxCell id="PX5IsND9vOsVrEjf0ufV-214" value="PK FK1 M" style="shape=partialRectangle;connectable=0;fillColor=none;top=0;left=0;bottom=0;right=0;align=center;spacingLeft=6;overflow=hidden;fontStyle=5" vertex="1" parent="PX5IsND9vOsVrEjf0ufV-211">
          <mxGeometry x="160" width="100" height="30" as="geometry" />
        </mxCell>
        <mxCell id="PX5IsND9vOsVrEjf0ufV-215" value="" style="shape=partialRectangle;collapsible=0;dropTarget=0;pointerEvents=0;fillColor=none;top=0;left=0;bottom=0;right=0;points=[[0,0.5],[1,0.5]];portConstraint=eastwest;align=center;fontStyle=5" vertex="1" parent="PX5IsND9vOsVrEjf0ufV-210">
          <mxGeometry y="60" width="260" height="30" as="geometry" />
        </mxCell>
        <mxCell id="PX5IsND9vOsVrEjf0ufV-216" value="ExhibitId" style="shape=partialRectangle;connectable=0;fillColor=none;top=0;left=0;bottom=0;right=0;editable=1;overflow=hidden;align=center;fontStyle=5" vertex="1" parent="PX5IsND9vOsVrEjf0ufV-215">
          <mxGeometry width="110" height="30" as="geometry" />
        </mxCell>
        <mxCell id="PX5IsND9vOsVrEjf0ufV-217" value="int" style="shape=partialRectangle;connectable=0;fillColor=none;top=0;left=0;bottom=0;right=0;align=center;spacingLeft=6;overflow=hidden;fontStyle=5" vertex="1" parent="PX5IsND9vOsVrEjf0ufV-215">
          <mxGeometry x="110" width="50" height="30" as="geometry" />
        </mxCell>
        <mxCell id="PX5IsND9vOsVrEjf0ufV-218" value="PK FK2 M" style="shape=partialRectangle;connectable=0;fillColor=none;top=0;left=0;bottom=0;right=0;align=center;spacingLeft=6;overflow=hidden;fontStyle=5" vertex="1" parent="PX5IsND9vOsVrEjf0ufV-215">
          <mxGeometry x="160" width="100" height="30" as="geometry" />
        </mxCell>
        <mxCell id="PX5IsND9vOsVrEjf0ufV-222" style="edgeStyle=orthogonalEdgeStyle;rounded=0;orthogonalLoop=1;jettySize=auto;html=1;exitX=0;exitY=0.5;exitDx=0;exitDy=0;entryX=0.75;entryY=1;entryDx=0;entryDy=0;startArrow=classic;startFill=1;endArrow=none;endFill=0;" edge="1" parent="1" source="PX5IsND9vOsVrEjf0ufV-38" target="PX5IsND9vOsVrEjf0ufV-210">
          <mxGeometry relative="1" as="geometry" />
        </mxCell>
        <mxCell id="PX5IsND9vOsVrEjf0ufV-223" value="FK1" style="text;html=1;align=center;verticalAlign=middle;resizable=0;points=[];autosize=1;" vertex="1" parent="1">
          <mxGeometry x="1080" y="540" width="40" height="20" as="geometry" />
        </mxCell>
        <mxCell id="PX5IsND9vOsVrEjf0ufV-224" value="FK2" style="text;html=1;align=center;verticalAlign=middle;resizable=0;points=[];autosize=1;" vertex="1" parent="1">
          <mxGeometry x="1410" y="620" width="40" height="20" as="geometry" />
        </mxCell>
        <mxCell id="PX5IsND9vOsVrEjf0ufV-245" value="FK1" style="text;html=1;align=center;verticalAlign=middle;resizable=0;points=[];autosize=1;" vertex="1" parent="1">
          <mxGeometry x="410" y="620" width="40" height="20" as="geometry" />
        </mxCell>
        <mxCell id="PX5IsND9vOsVrEjf0ufV-246" value="FK3" style="text;html=1;align=center;verticalAlign=middle;resizable=0;points=[];autosize=1;" vertex="1" parent="1">
          <mxGeometry x="660" y="430" width="40" height="20" as="geometry" />
        </mxCell>
        <mxCell id="PX5IsND9vOsVrEjf0ufV-247" value="FK2" style="text;html=1;align=center;verticalAlign=middle;resizable=0;points=[];autosize=1;" vertex="1" parent="1">
          <mxGeometry x="870" y="610" width="40" height="20" as="geometry" />
        </mxCell>
        <mxCell id="PX5IsND9vOsVrEjf0ufV-283" style="edgeStyle=orthogonalEdgeStyle;rounded=0;orthogonalLoop=1;jettySize=auto;html=1;exitX=0.5;exitY=0;exitDx=0;exitDy=0;entryX=0.5;entryY=1;entryDx=0;entryDy=0;startArrow=classic;startFill=1;endArrow=none;endFill=0;" edge="1" parent="1" source="PX5IsND9vOsVrEjf0ufV-256" target="PX5IsND9vOsVrEjf0ufV-273">
          <mxGeometry relative="1" as="geometry" />
        </mxCell>
        <mxCell id="PX5IsND9vOsVrEjf0ufV-256" value="Owner" style="shape=table;startSize=30;container=1;collapsible=1;childLayout=tableLayout;fixedRows=1;rowLines=0;fontStyle=1;align=center;resizeLast=1;" vertex="1" parent="1">
          <mxGeometry x="1460" y="990" width="330" height="160" as="geometry" />
        </mxCell>
        <mxCell id="PX5IsND9vOsVrEjf0ufV-257" value="" style="shape=partialRectangle;collapsible=0;dropTarget=0;pointerEvents=0;fillColor=none;top=0;left=0;bottom=1;right=0;points=[[0,0.5],[1,0.5]];portConstraint=eastwest;align=center;" vertex="1" parent="PX5IsND9vOsVrEjf0ufV-256">
          <mxGeometry y="30" width="330" height="30" as="geometry" />
        </mxCell>
        <mxCell id="PX5IsND9vOsVrEjf0ufV-258" value="id" style="shape=partialRectangle;connectable=0;fillColor=none;top=0;left=0;bottom=0;right=0;fontStyle=1;overflow=hidden;align=center;" vertex="1" parent="PX5IsND9vOsVrEjf0ufV-257">
          <mxGeometry width="110" height="30" as="geometry" />
        </mxCell>
        <mxCell id="PX5IsND9vOsVrEjf0ufV-259" value="int" style="shape=partialRectangle;connectable=0;fillColor=none;top=0;left=0;bottom=0;right=0;align=center;spacingLeft=6;fontStyle=5;overflow=hidden;" vertex="1" parent="PX5IsND9vOsVrEjf0ufV-257">
          <mxGeometry x="110" width="130" height="30" as="geometry" />
        </mxCell>
        <mxCell id="PX5IsND9vOsVrEjf0ufV-260" value="PK M" style="shape=partialRectangle;connectable=0;fillColor=none;top=0;left=0;bottom=0;right=0;align=center;spacingLeft=6;fontStyle=5;overflow=hidden;" vertex="1" parent="PX5IsND9vOsVrEjf0ufV-257">
          <mxGeometry x="240" width="90" height="30" as="geometry" />
        </mxCell>
        <mxCell id="PX5IsND9vOsVrEjf0ufV-261" value="" style="shape=partialRectangle;collapsible=0;dropTarget=0;pointerEvents=0;fillColor=none;top=0;left=0;bottom=0;right=0;points=[[0,0.5],[1,0.5]];portConstraint=eastwest;align=center;" vertex="1" parent="PX5IsND9vOsVrEjf0ufV-256">
          <mxGeometry y="60" width="330" height="30" as="geometry" />
        </mxCell>
        <mxCell id="PX5IsND9vOsVrEjf0ufV-262" value="Name" style="shape=partialRectangle;connectable=0;fillColor=none;top=0;left=0;bottom=0;right=0;editable=1;overflow=hidden;align=center;" vertex="1" parent="PX5IsND9vOsVrEjf0ufV-261">
          <mxGeometry width="110" height="30" as="geometry" />
        </mxCell>
        <mxCell id="PX5IsND9vOsVrEjf0ufV-263" value="owner name" style="shape=partialRectangle;connectable=0;fillColor=none;top=0;left=0;bottom=0;right=0;align=center;spacingLeft=6;overflow=hidden;" vertex="1" parent="PX5IsND9vOsVrEjf0ufV-261">
          <mxGeometry x="110" width="130" height="30" as="geometry" />
        </mxCell>
        <mxCell id="PX5IsND9vOsVrEjf0ufV-264" value="M" style="shape=partialRectangle;connectable=0;fillColor=none;top=0;left=0;bottom=0;right=0;align=center;spacingLeft=6;overflow=hidden;" vertex="1" parent="PX5IsND9vOsVrEjf0ufV-261">
          <mxGeometry x="240" width="90" height="30" as="geometry" />
        </mxCell>
        <mxCell id="PX5IsND9vOsVrEjf0ufV-265" style="shape=partialRectangle;collapsible=0;dropTarget=0;pointerEvents=0;fillColor=none;top=0;left=0;bottom=0;right=0;points=[[0,0.5],[1,0.5]];portConstraint=eastwest;align=center;" vertex="1" parent="PX5IsND9vOsVrEjf0ufV-256">
          <mxGeometry y="90" width="330" height="30" as="geometry" />
        </mxCell>
        <mxCell id="PX5IsND9vOsVrEjf0ufV-266" value="ContactNumber" style="shape=partialRectangle;connectable=0;fillColor=none;top=0;left=0;bottom=0;right=0;editable=1;overflow=hidden;align=center;" vertex="1" parent="PX5IsND9vOsVrEjf0ufV-265">
          <mxGeometry width="110" height="30" as="geometry" />
        </mxCell>
        <mxCell id="PX5IsND9vOsVrEjf0ufV-267" value="phone number" style="shape=partialRectangle;connectable=0;fillColor=none;top=0;left=0;bottom=0;right=0;align=center;spacingLeft=6;overflow=hidden;" vertex="1" parent="PX5IsND9vOsVrEjf0ufV-265">
          <mxGeometry x="110" width="130" height="30" as="geometry" />
        </mxCell>
        <mxCell id="PX5IsND9vOsVrEjf0ufV-268" style="shape=partialRectangle;connectable=0;fillColor=none;top=0;left=0;bottom=0;right=0;align=center;spacingLeft=6;overflow=hidden;" vertex="1" parent="PX5IsND9vOsVrEjf0ufV-265">
          <mxGeometry x="240" width="90" height="30" as="geometry" />
        </mxCell>
        <mxCell id="PX5IsND9vOsVrEjf0ufV-269" style="shape=partialRectangle;collapsible=0;dropTarget=0;pointerEvents=0;fillColor=none;top=0;left=0;bottom=0;right=0;points=[[0,0.5],[1,0.5]];portConstraint=eastwest;align=center;" vertex="1" parent="PX5IsND9vOsVrEjf0ufV-256">
          <mxGeometry y="120" width="330" height="30" as="geometry" />
        </mxCell>
        <mxCell id="PX5IsND9vOsVrEjf0ufV-270" value="ContactEmail" style="shape=partialRectangle;connectable=0;fillColor=none;top=0;left=0;bottom=0;right=0;editable=1;overflow=hidden;align=center;" vertex="1" parent="PX5IsND9vOsVrEjf0ufV-269">
          <mxGeometry width="110" height="30" as="geometry" />
        </mxCell>
        <mxCell id="PX5IsND9vOsVrEjf0ufV-271" value="email" style="shape=partialRectangle;connectable=0;fillColor=none;top=0;left=0;bottom=0;right=0;align=center;spacingLeft=6;overflow=hidden;" vertex="1" parent="PX5IsND9vOsVrEjf0ufV-269">
          <mxGeometry x="110" width="130" height="30" as="geometry" />
        </mxCell>
        <mxCell id="PX5IsND9vOsVrEjf0ufV-272" style="shape=partialRectangle;connectable=0;fillColor=none;top=0;left=0;bottom=0;right=0;align=center;spacingLeft=6;overflow=hidden;" vertex="1" parent="PX5IsND9vOsVrEjf0ufV-269">
          <mxGeometry x="240" width="90" height="30" as="geometry" />
        </mxCell>
        <mxCell id="PX5IsND9vOsVrEjf0ufV-273" value="ExhibitOwner" style="shape=table;startSize=30;container=1;collapsible=1;childLayout=tableLayout;fixedRows=1;rowLines=0;fontStyle=1;align=center;resizeLast=1;" vertex="1" parent="1">
          <mxGeometry x="1460" y="810" width="330" height="100" as="geometry" />
        </mxCell>
        <mxCell id="PX5IsND9vOsVrEjf0ufV-274" value="" style="shape=partialRectangle;collapsible=0;dropTarget=0;pointerEvents=0;fillColor=none;top=0;left=0;bottom=0;right=0;points=[[0,0.5],[1,0.5]];portConstraint=eastwest;align=center;fontStyle=5" vertex="1" parent="PX5IsND9vOsVrEjf0ufV-273">
          <mxGeometry y="30" width="330" height="30" as="geometry" />
        </mxCell>
        <mxCell id="PX5IsND9vOsVrEjf0ufV-275" value="ExhibitId" style="shape=partialRectangle;connectable=0;fillColor=none;top=0;left=0;bottom=0;right=0;editable=1;overflow=hidden;align=center;fontStyle=5" vertex="1" parent="PX5IsND9vOsVrEjf0ufV-274">
          <mxGeometry width="110" height="30" as="geometry" />
        </mxCell>
        <mxCell id="PX5IsND9vOsVrEjf0ufV-276" value="int" style="shape=partialRectangle;connectable=0;fillColor=none;top=0;left=0;bottom=0;right=0;align=center;spacingLeft=6;overflow=hidden;fontStyle=5" vertex="1" parent="PX5IsND9vOsVrEjf0ufV-274">
          <mxGeometry x="110" width="130" height="30" as="geometry" />
        </mxCell>
        <mxCell id="PX5IsND9vOsVrEjf0ufV-277" value="PK FK1 M" style="shape=partialRectangle;connectable=0;fillColor=none;top=0;left=0;bottom=0;right=0;align=center;spacingLeft=6;overflow=hidden;fontStyle=5" vertex="1" parent="PX5IsND9vOsVrEjf0ufV-274">
          <mxGeometry x="240" width="90" height="30" as="geometry" />
        </mxCell>
        <mxCell id="PX5IsND9vOsVrEjf0ufV-278" value="" style="shape=partialRectangle;collapsible=0;dropTarget=0;pointerEvents=0;fillColor=none;top=0;left=0;bottom=0;right=0;points=[[0,0.5],[1,0.5]];portConstraint=eastwest;align=center;fontStyle=0" vertex="1" parent="PX5IsND9vOsVrEjf0ufV-273">
          <mxGeometry y="60" width="330" height="30" as="geometry" />
        </mxCell>
        <mxCell id="PX5IsND9vOsVrEjf0ufV-279" value="OrganizerId" style="shape=partialRectangle;connectable=0;fillColor=none;top=0;left=0;bottom=0;right=0;editable=1;overflow=hidden;align=center;fontStyle=0" vertex="1" parent="PX5IsND9vOsVrEjf0ufV-278">
          <mxGeometry width="110" height="30" as="geometry" />
        </mxCell>
        <mxCell id="PX5IsND9vOsVrEjf0ufV-280" value="int" style="shape=partialRectangle;connectable=0;fillColor=none;top=0;left=0;bottom=0;right=0;align=center;spacingLeft=6;overflow=hidden;fontStyle=0" vertex="1" parent="PX5IsND9vOsVrEjf0ufV-278">
          <mxGeometry x="110" width="130" height="30" as="geometry" />
        </mxCell>
        <mxCell id="PX5IsND9vOsVrEjf0ufV-281" value="FK2 M" style="shape=partialRectangle;connectable=0;fillColor=none;top=0;left=0;bottom=0;right=0;align=center;spacingLeft=6;overflow=hidden;fontStyle=0" vertex="1" parent="PX5IsND9vOsVrEjf0ufV-278">
          <mxGeometry x="240" width="90" height="30" as="geometry" />
        </mxCell>
        <mxCell id="PX5IsND9vOsVrEjf0ufV-284" value="FK1" style="text;html=1;align=center;verticalAlign=middle;resizable=0;points=[];autosize=1;" vertex="1" parent="1">
          <mxGeometry x="1630" y="740" width="40" height="20" as="geometry" />
        </mxCell>
        <mxCell id="PX5IsND9vOsVrEjf0ufV-285" value="FK2" style="text;html=1;align=center;verticalAlign=middle;resizable=0;points=[];autosize=1;rotation=0;" vertex="1" parent="1">
          <mxGeometry x="1630" y="960" width="40" height="20" as="geometry" />
        </mxCell>
      </root>
    </mxGraphModel>
  </diagram>
</mxfile>
